<svg width="18" height="21" viewBox="0 0 18 21" fill="none" xmlns="http://www.w3.org/2000/svg">
<g id="Vector">
<path d="M16.5204 8.7602C16.5204 14.7959 8.7602 19.9694 8.7602 19.9694C8.7602 19.9694 1 14.7959 1 8.7602C1 6.70207 1.81759 4.72823 3.27291 3.27291C4.72823 1.81759 6.70207 1 8.7602 1C10.8183 1 12.7922 1.81759 14.2475 3.27291C15.7028 4.72823 16.5204 6.70207 16.5204 8.7602Z" stroke="white" stroke-width="1.5" stroke-linecap="round" stroke-linejoin="round"/>
<path d="M8.7602 11.3469C10.1888 11.3469 11.3469 10.1888 11.3469 8.7602C11.3469 7.33159 10.1888 6.17347 8.7602 6.17347C7.33159 6.17347 6.17347 7.33159 6.17347 8.7602C6.17347 10.1888 7.33159 11.3469 8.7602 11.3469Z" stroke="white" stroke-width="1.5" stroke-linecap="round" stroke-linejoin="round"/>
</g>
</svg>
